<?xml version="1.0" encoding="utf-8"?>
<!-- Generator: Adobe Illustrator 22.1.0, SVG Export Plug-In . SVG Version: 6.00 Build 0)  -->
<svg version="1.1" id="Ebene_1" xmlns="http://www.w3.org/2000/svg" xmlns:xlink="http://www.w3.org/1999/xlink" x="0px" y="0px"
	 viewBox="0 0 74 42" style="enable-background:new 0 0 74 42;" xml:space="preserve">
<g>
	<g>
		<path d="M61.4,1l-3.7,17h2.4l0.6-3.2h3.6L65,18h2.5L63.7,1H61.4z M64,12.7h-2.8L62.6,5L64,12.7z"/>
		<polygon points="36.7,1 34.4,1 34.4,18 41.7,18 41.7,15.9 36.7,15.9 		"/>
		<polygon points="48.9,1 46.6,1 46.6,18 53.8,18 53.8,15.9 48.9,15.9 		"/>
		<polygon points="23.5,10 28.1,10 28.1,7.8 23.5,7.8 23.5,3.2 28.8,3.2 28.8,1 21.2,1 21.2,18 29,18 29,15.9 23.5,15.9 		"/>
		<polygon points="12.4,8.1 8.9,8.1 8.9,1 6.5,1 6.5,18 8.9,18 8.9,10.2 12.4,10.2 12.4,18 14.8,18 14.8,1 12.4,1 		"/>
	</g>
	<g>
		<path d="M72.9,27.1c-0.1-0.9-0.4-3.6-4-3.6c-2.6,0-4.1,1.3-4.3,3.8c-0.1,0.9-0.1,4.5-0.1,5.5v0.4c0,1.5,0,3.6,0.2,4.7
			c0.2,1.2,0.8,2.1,1.7,2.6c0.8,0.4,1.7,0.5,2.3,0.5c3.5,0,4.1-2.3,4.2-4.5c0.1-1.2,0.1-3.1,0.1-4.5l0-0.3
			C73,30.8,73,28.4,72.9,27.1z M68.7,39c-1.8,0-1.8-1.5-1.8-3c0-0.2,0-0.4,0-0.6c0-1.1,0-1.1,0-2.2c0-4,0-4.3,0-5.1l0,0
			c0-0.9,0.1-2.5,1.9-2.5c1.7,0,1.8,1.5,1.8,2.6c0,0.7,0,1.3,0,2c0,0.6,0,1.3,0,1.9c0,1.3,0,3-0.1,4.4l0,0.1
			C70.4,37.6,70.3,39,68.7,39z"/>
		<rect x="55.8" y="23.8" width="2.3" height="17"/>
		<path d="M5.3,30.3c-1.2-1.2-1.6-1.7-1.6-2.9c0-0.8,0.2-1.8,1.6-1.8c1.2,0,1.5,0.7,1.6,1.2c0,0.3,0,0.4,0.1,1.6L7,29h2.1v-0.1
			c0-2.5,0-3.1-0.5-3.9c-0.6-1-1.7-1.4-3.2-1.4c-2.7,0-4,1.4-4,4c0,1.5,0.3,2.6,2,4.3l2.3,2.3c1,1,1.5,1.6,1.5,2.9
			c0,1.8-1.5,1.9-2,1.9c-1.5,0-1.8-1.2-1.9-1.9c0-0.3,0-0.5,0-2.2v-0.1H1v2c0,1,0.1,2.5,1.4,3.4C2.7,40.4,3.6,41,5.3,41
			c1,0,4.2-0.3,4.2-4.1c0-2-0.6-2.8-2-4.3L5.3,30.3z"/>
		<path d="M44.4,23.8h-3.3v17h3.2c1.8,0,3.4,0,4.4-1.6c0.6-1,0.7-2.1,0.7-3.9c0-2.3,0-3.3,0-4.2c0-4.1-0.1-5-0.9-6
			C47.6,23.8,46.1,23.8,44.4,23.8z M47.2,33.2c0,1.1,0,3.2-0.1,4c-0.2,1.4-1.1,1.5-2.4,1.5h-1.2V26c2.1,0,2.5,0,3,0.3
			c0.7,0.5,0.7,1.3,0.7,3.1C47.2,31,47.2,31.6,47.2,33.2z"/>
		<polygon points="13.3,25.9 16.5,25.9 16.5,40.8 18.8,40.8 18.8,25.9 22,25.9 22,23.8 13.3,23.8 		"/>
		<path d="M32.4,35c0,1.2,0,1.4,0,2c0,0.8-0.1,1.9-1.7,1.9c-1.9,0-1.9-1.4-1.9-2.8V23.8h-2.4v11.6c0,2.5,0.1,3,0.4,3.8
			c0.6,1.3,1.9,1.9,3.8,1.9c1.1,0,3-0.3,3.8-2c0.4-0.9,0.4-1.8,0.4-3.8V23.8h-2.4V35z"/>
	</g>
</g>
</svg>
