<?xml version="1.0" encoding="utf-8"?>
<!-- Generator: Adobe Illustrator 22.1.0, SVG Export Plug-In . SVG Version: 6.00 Build 0)  -->
<svg version="1.1" id="Ebene_1" xmlns="http://www.w3.org/2000/svg" xmlns:xlink="http://www.w3.org/1999/xlink" x="0px" y="0px"
	 viewBox="0 0 150 18" style="enable-background:new 0 0 150 18;" xml:space="preserve">
<g>
	<path d="M55.6,0.6l-3.6,16.9h2.4l0.6-3.2h3.6l0.6,3.2h2.5L57.9,0.6H55.6z M58.2,12.2h-2.8l1.4-7.6L58.2,12.2z"/>
	<polygon points="31,0.6 28.7,0.6 28.7,17.5 35.9,17.5 35.9,15.3 31,15.3 	"/>
	<polygon points="43.2,0.6 40.8,0.6 40.8,17.5 48,17.5 48,15.3 43.2,15.3 	"/>
	<polygon points="17.9,9.5 22.5,9.5 22.5,7.4 17.9,7.4 17.9,2.7 23.1,2.7 23.1,0.6 15.6,0.6 15.6,17.5 23.3,17.5 23.3,15.3 
		17.9,15.3 	"/>
	<polygon points="6.9,7.6 3.4,7.6 3.4,0.6 1,0.6 1,17.5 3.4,17.5 3.4,9.7 6.9,9.7 6.9,17.5 9.2,17.5 9.2,0.6 6.9,0.6 	"/>
	<path d="M148.9,3.9c-0.1-0.9-0.4-3.6-4-3.6c-2.6,0-4.1,1.3-4.3,3.8c-0.1,0.9-0.1,4.4-0.1,5.4V10c0,1.5,0,3.6,0.2,4.6
		c0.2,1.2,0.8,2.1,1.7,2.6c0.8,0.4,1.6,0.5,2.3,0.5c3.5,0,4.1-2.3,4.2-4.5c0.1-1.2,0.1-3.1,0.1-4.5l0-0.3C149,7.6,149,5.1,148.9,3.9
		z M144.7,15.7c-1.8,0-1.8-1.5-1.8-3c0-0.2,0-0.4,0-0.6c0-1.1,0-1.1,0-2.2c0-4,0-4.3,0-5.1l0,0c0-0.9,0.1-2.5,1.9-2.5
		c1.7,0,1.7,1.5,1.8,2.5c0,0.7,0,1.3,0,2c0,0.6,0,1.3,0,1.9c0,1.3,0,3-0.1,4.4l0,0.1C146.4,14.3,146.3,15.7,144.7,15.7z"/>
	<rect x="132" y="0.6" width="2.3" height="16.9"/>
	<path d="M81.8,7.1c-1.2-1.2-1.6-1.7-1.6-2.9c0-0.8,0.2-1.8,1.6-1.8c1.1,0,1.5,0.7,1.6,1.2c0,0.3,0,0.4,0.1,1.5l0,0.6h2.1V5.6
		c0-2.5,0-3.1-0.5-3.9c-0.6-0.9-1.6-1.4-3.2-1.4c-2.7,0-4,1.4-4,4c0,1.5,0.3,2.5,1.9,4.2l2.3,2.3c1,1,1.5,1.6,1.5,2.8
		c0,1.8-1.5,1.9-2,1.9c-1.5,0-1.8-1.2-1.9-1.8c0-0.3,0-0.5,0-2.2v-0.1h-2.3v2c0,1,0.1,2.5,1.3,3.4c0.3,0.3,1.2,0.9,2.9,0.9
		c1,0,4.2-0.3,4.2-4.1c0-1.9-0.6-2.8-2-4.3L81.8,7.1z"/>
	<path d="M120.7,0.6h-3.3v16.9h3.2c1.8,0,3.4,0,4.4-1.6c0.6-1,0.7-2.1,0.7-3.9c0-2.3,0-3.3,0-4.2c0-4.1-0.1-4.9-0.9-5.9
		C123.8,0.6,122.3,0.6,120.7,0.6z M123.4,9.9c0,1,0,3.2-0.1,4c-0.2,1.4-1.1,1.5-2.4,1.5h-1.2V2.7c2,0,2.5,0,3,0.3
		c0.7,0.5,0.7,1.3,0.7,3.1C123.4,7.8,123.4,8.4,123.4,9.9z"/>
	<polygon points="89.8,2.7 92.9,2.7 92.9,17.5 95.2,17.5 95.2,2.7 98.4,2.7 98.4,0.6 89.8,0.6 	"/>
	<path d="M108.7,11.7c0,1.2,0,1.4,0,2c0,0.8-0.1,1.9-1.7,1.9c-1.9,0-1.9-1.4-1.9-2.8V0.6h-2.4V12c0,2.5,0.1,3,0.4,3.8
		c0.6,1.3,1.9,1.9,3.8,1.9c1.1,0,3-0.3,3.8-2c0.4-0.9,0.4-1.8,0.4-3.8V0.6h-2.4V11.7z"/>
</g>
</svg>
