<?xml version="1.0" encoding="utf-8"?>
<!-- Generator: Adobe Illustrator 22.1.0, SVG Export Plug-In . SVG Version: 6.00 Build 0)  -->
<svg version="1.1" id="Ebene_1" xmlns="http://www.w3.org/2000/svg" xmlns:xlink="http://www.w3.org/1999/xlink" x="0px" y="0px"
	 viewBox="0 0 150 50" style="enable-background:new 0 0 150 50;" xml:space="preserve">
<g>
	<path d="M100.4,2C128,2,148,8.1,148,16.5c0,5.3-7.8,11.7-20.8,17.3c-14,6-32.6,10.5-52.5,12.7c-8.6,1-17.1,1.5-25.2,1.5
		C22,48,2,41.9,2,33.5c0-5.3,7.8-11.7,20.8-17.3c14-6,32.6-10.5,52.5-12.7C83.9,2.5,92.3,2,100.4,2 M100.4,0C92.5,0,83.9,0.5,75,1.5
		c-41.4,4.7-75,19-75,32C0,43.7,20.7,50,49.6,50c7.9,0,16.5-0.5,25.4-1.5c41.4-4.7,75-19,75-32C150,6.3,129.3,0,100.4,0L100.4,0z"/>
</g>
<path d="M101.9,20l2.6,7.2h-5.2L101.9,20z M95.5,32h2.1l1.1-3.1h6.5l1.1,3.1h2.2L103.1,18h-2.3L95.5,32z M86.7,32h2V19.7h4.6V18
	H82.1v1.8h4.6V32z M67.6,21.6c0,2.4,2,3.4,3.9,3.9l1.8,0.4c1.8,0.4,3.1,1,3.1,2.5c0,1.4-1.2,2.3-3.3,2.3c-2.3,0-3.6-1.1-4-3.1
	l-2,0.3c0.4,2.7,2.5,4.5,5.9,4.5c2.8,0,5.4-1.4,5.4-4.2c0-2.9-2.6-3.6-4.8-4.1L72,23.6c-1.3-0.3-2.3-0.8-2.3-2.1
	c0-1.6,1.9-2.1,3-2.1c1.4,0,3.1,0.5,3.5,2.3l2-0.3c-0.6-2.6-2.8-3.8-5.4-3.8C70.5,17.7,67.6,18.8,67.6,21.6 M61.6,32V18h-2v12
	l-6.5-12h-3V32h2v-12l6.5,12H61.6z M43.5,18h-2V32h2V18z"/>
</svg>
