<?xml version="1.0" encoding="utf-8"?>
<!-- Generator: Adobe Illustrator 26.5.0, SVG Export Plug-In . SVG Version: 6.00 Build 0)  -->
<svg version="1.1" xmlns="http://www.w3.org/2000/svg" xmlns:xlink="http://www.w3.org/1999/xlink" x="0px" y="0px"
	 viewBox="0 0 150 50" style="enable-background:new 0 0 150 50;" xml:space="preserve">
<g id="Ebene_1">
	<g>
		<path d="M100.4,2C128,2,148,8.1,148,16.5c0,5.3-7.8,11.7-20.8,17.3c-14,6-32.6,10.5-52.5,12.7c-8.6,1-17.1,1.5-25.2,1.5
			C22,48,2,41.9,2,33.5c0-5.3,7.8-11.7,20.8-17.3c14-6,32.6-10.5,52.5-12.7C83.9,2.5,92.3,2,100.4,2 M100.4,0
			C92.5,0,83.9,0.5,75,1.5c-41.4,4.7-75,19-75,32C0,43.7,20.7,50,49.6,50c7.9,0,16.5-0.5,25.4-1.5c41.4-4.7,75-19,75-32
			C150,6.3,129.3,0,100.4,0L100.4,0z"/>
	</g>
	<g>
		<path d="M52.9,36.2c-4.6,0-7.3-3-6.5-7.6h3.3c-0.6,3.4,0.6,4.8,3.2,4.8c2.5,0,3.5-1.2,3.5-4V14h3.1v15.4
			C59.4,34.2,57.6,36.2,52.9,36.2z"/>
		<path d="M73.2,36.2C66.6,36.2,63,31.6,63,25c0-6.6,3.7-11.2,10.2-11.2S83.5,18.4,83.5,25C83.5,31.6,79.8,36.2,73.2,36.2z
			 M73.2,16.6c-4.3,0-7,3-7,8.4s2.7,8.4,7,8.4c4.3,0,7-3,7-8.4S77.5,16.6,73.2,16.6z"/>
		<path d="M96.3,35.9H87V14h9c4,0,6.5,2.6,6.5,5.5c0,1.9-0.8,3.4-3,4.7c3.1,1.1,4.3,2.9,4.3,5.5C103.8,33,101.5,35.9,96.3,35.9z
			 M99.5,19.7c0-1.9-1.3-2.9-3.8-2.9h-5.6v6h5.1C97.9,22.8,99.5,21.6,99.5,19.7z M100.6,29.5c0-2.4-2.1-3.8-5.6-3.8h-4.8v7.5h5.7
			C98.6,33.1,100.6,31.8,100.6,29.5z"/>
	</g>
</g>
<g id="Ebene_2">
</g>
</svg>
