<?xml version="1.0" encoding="utf-8"?>
<!-- Generator: Adobe Illustrator 22.1.0, SVG Export Plug-In . SVG Version: 6.00 Build 0)  -->
<svg version="1.1" id="Ebene_1" xmlns="http://www.w3.org/2000/svg" xmlns:xlink="http://www.w3.org/1999/xlink" x="0px" y="0px"
	 viewBox="0 0 150 50" style="enable-background:new 0 0 150 50;" xml:space="preserve">
<g>
	<path d="M100.4,2C128,2,148,8.1,148,16.5c0,5.3-7.8,11.7-20.8,17.3c-14,6-32.6,10.5-52.5,12.7c-8.6,1-17.1,1.5-25.2,1.5
		C22,48,2,41.9,2,33.5c0-5.3,7.8-11.7,20.8-17.3c14-6,32.6-10.5,52.5-12.7C83.9,2.5,92.3,2,100.4,2 M100.4,0C92.5,0,83.9,0.5,75,1.5
		c-41.4,4.7-75,19-75,32C0,43.7,20.7,50,49.6,50c7.9,0,16.5-0.5,25.4-1.5c41.4-4.7,75-19,75-32C150,6.3,129.3,0,100.4,0L100.4,0z"/>
</g>
</svg>
