<?xml version="1.0" encoding="UTF-8"?><svg id="Ebene_1" xmlns="http://www.w3.org/2000/svg" viewBox="0 0 150 50"><path d="M42.4,13.81c4.62,0,8.44,2.24,9.35,6.76l-3.99.6c-.67-2.94-3.22-3.96-5.57-3.96-1.82,0-4.41.74-4.41,3.01,0,1.79,1.44,2.63,3.43,3.05l2.91.63c3.75.77,7.95,2.17,7.95,6.93s-4.48,7.07-9.25,7.07c-5.71,0-9.35-3.12-10.05-7.7l4.06-.63c.67,3.29,2.87,4.94,6.09,4.94,2.66,0,4.97-.98,4.97-3.4,0-2.17-2.07-2.98-4.76-3.57l-2.87-.63c-3.54-.77-6.65-2.52-6.65-6.55,0-4.62,4.76-6.55,8.79-6.55Z"/><path d="M75,14.23v23.25h-4.13v-10.23h-11.28v10.23h-4.13V14.23h4.13v9.6h11.28v-9.6h4.13Z"/><path d="M90.09,37.9c-6.93,0-11.28-4.8-11.28-12.12s4.45-11.98,11.28-11.98,11.28,4.55,11.28,11.98-4.45,12.12-11.28,12.12ZM90.09,17.21c-3.92,0-7,2.8-7,8.58s3.08,8.72,7,8.72,7-2.94,7-8.72-3.05-8.58-7-8.58Z"/><path d="M112.6,14.23c5.18,0,10.01,1.02,10.01,7.6,0,5.95-4.38,7.42-9.95,7.42h-3.29v8.23h-4.2V14.23h7.42ZM109.38,17.7v8.16h3.43c3.12,0,5.53-.6,5.53-3.99,0-3.85-2.84-4.17-5.74-4.17h-3.22Z"/><path d="M100.4,2c27.6,0,47.6,6.1,47.6,14.5,0,5.3-7.8,11.7-20.8,17.3-14,6-32.6,10.5-52.5,12.7-8.6,1-17.1,1.5-25.2,1.5-27.5,0-47.5-6.1-47.5-14.5,0-5.3,7.8-11.7,20.8-17.3,14-6,32.6-10.5,52.5-12.7,8.6-1,17-1.5,25.1-1.5M100.4,0c-7.9,0-16.5.5-25.4,1.5C33.6,6.2,0,20.5,0,33.5c0,10.2,20.7,16.5,49.6,16.5,7.9,0,16.5-.5,25.4-1.5,41.4-4.7,75-19,75-32,0-10.2-20.7-16.5-49.6-16.5h0Z"/></svg>